<svg width="54" height="16" viewBox="0 0 54 16" fill="none" xmlns="http://www.w3.org/2000/svg">
<g id="logo">
<path id="UMA" d="M12.4938 0.759983H11.9938V1.25998V2.6641V9.35814C11.9938 10.3237 11.8751 11.1092 11.6543 11.7285C11.4358 12.3293 11.12 12.7613 10.7208 13.0556C10.2837 13.3779 9.79075 13.6105 9.23739 13.7525C8.67149 13.8855 7.97551 13.9558 7.14233 13.9558C6.30915 13.9558 5.61316 13.8855 5.04726 13.7525C4.4939 13.6105 4.00095 13.3779 3.56385 13.0556C3.16468 12.7613 2.84887 12.3293 2.63036 11.7285C2.40955 11.1092 2.29086 10.3238 2.29086 9.35814V1.25998V0.759983H1.79086H1H0.5V1.25998V9.35814C0.5 11.3679 1.00194 12.9525 2.10536 14.0018L2.10776 14.004C3.21054 15.0389 4.92936 15.5 7.14233 15.5C9.35529 15.5 11.0741 15.0389 12.1769 14.004L12.1769 14.004L12.1793 14.0018C13.2827 12.9525 13.7847 11.3679 13.7847 9.35814V1.25998V0.759983H13.2847H12.4938ZM31.3783 0.742333L25.8754 9.8936L20.3724 0.742333L20.2267 0.5H19.9439H19.1531H18.6531V1V14.9456V15.4342L19.1416 15.4454L19.9325 15.4636L20.4439 15.4753V14.9637V5.0203L25.4613 12.4321L25.8749 13.0432L26.2891 12.4325L31.3068 5.03565V14.2744V14.9637V15.4637H31.8068H32.5976H33.0976V14.9637V1V0.5H32.5976H31.8068H31.524L31.3783 0.742333ZM50.5672 15.211L50.7069 15.4819H51.0116H51.4598H52H52.8299L52.442 14.7482L45.7198 2.03133L45.2777 1.1951L44.8357 2.03133L38.1134 14.7482L37.7256 15.4819H38.5554H39.399H39.7003L39.841 15.2155L45.2722 4.94171L50.5672 15.211Z" fill="black" stroke="black"/>
</g>
</svg>
